<svg version="1.1" id="Layer_1" xmlns="http://www.w3.org/2000/svg" xmlns:xlink="http://www.w3.org/1999/xlink" x="0px" y="0px"
	 width="100%" viewBox="0 0 1024 304" enable-background="new 0 0 1024 304" xml:space="preserve">
<path fill="#000000" opacity="1.000000" stroke="none" 
	d="
M382.468658,305.000000 
	C381.948486,297.431122 377.189758,294.423981 370.910004,291.265930 
	C364.119965,287.851318 359.595825,288.073853 353.814941,293.111328 
	C344.960815,300.826782 348.064301,300.831665 337.576965,293.107574 
	C334.364777,290.741730 331.606079,287.737488 328.310791,285.512787 
	C324.169006,282.716614 323.518311,279.251434 325.756042,275.252563 
	C330.856750,266.137482 328.688629,259.051086 321.871490,251.328766 
	C317.280487,246.128159 313.460663,244.209702 306.817169,245.498291 
	C296.269623,247.544067 296.202026,247.196457 291.511017,237.466019 
	C291.076874,236.565552 290.600464,235.682205 290.221313,234.759018 
	C288.134918,229.679184 284.425232,224.579681 284.455292,219.505768 
	C284.486725,214.198318 290.885803,211.161469 294.257874,206.932709 
	C295.612122,205.234421 297.248047,203.762985 296.762085,201.255905 
	C295.622772,195.378204 294.583618,189.480484 293.385864,183.615005 
	C292.929138,181.378418 290.930634,180.625793 289.064789,179.836426 
	C284.924500,178.084808 280.844849,176.174713 276.640381,174.595703 
	C274.115326,173.647400 272.879395,172.193512 272.801971,169.469284 
	C272.583862,161.794113 272.975037,154.153183 273.821930,146.531326 
	C274.142487,143.646408 275.448151,141.487991 278.491974,140.765594 
	C278.976746,140.650558 279.439819,140.353394 279.921875,140.330688 
	C295.489532,139.597275 296.419983,127.305901 298.994415,116.271263 
	C299.495636,114.123039 298.242676,112.791214 297.121979,111.373383 
	C294.332520,107.844330 291.604340,104.256775 288.634003,100.884315 
	C286.597504,98.572136 286.232758,96.387489 287.625031,93.627487 
	C291.078552,86.781387 294.771698,80.091713 298.965027,73.658020 
	C300.850983,70.764511 303.118347,70.237045 306.190277,70.950310 
	C310.567413,71.966599 315.015656,72.693535 319.361542,73.821404 
	C321.991272,74.503883 323.802582,73.823524 325.481934,71.818497 
	C327.405396,69.522041 329.237091,66.995979 331.613708,65.261833 
	C337.648010,60.858837 338.184235,55.544537 336.363525,48.681599 
	C333.062347,36.238197 333.393677,36.128395 344.417847,29.217581 
	C347.802460,27.095821 351.344238,25.219273 354.679077,23.025253 
	C357.723389,21.022362 360.274872,21.511280 362.719543,23.938122 
	C363.191528,24.406670 363.723572,24.814453 364.223816,25.254879 
	C376.688782,36.228676 376.674957,36.190804 392.335205,30.532288 
	C394.474487,29.759310 395.574860,28.458868 396.198639,26.400406 
	C397.598389,21.781530 399.235046,17.230213 400.504089,12.577442 
	C401.379059,9.369529 403.099457,7.809898 406.487640,7.833489 
	C413.485229,7.882212 420.484680,7.813309 427.481842,7.698412 
	C430.821381,7.643575 432.710541,9.210043 433.688080,12.325235 
	C435.082672,16.769407 436.715637,21.138977 438.099823,25.586140 
	C438.977570,28.406256 440.567169,30.149809 443.603119,30.584764 
	C445.405090,30.842932 447.320648,31.143429 448.901398,31.968508 
	C456.330200,35.846058 461.562195,33.322285 467.080109,27.580845 
	C475.051300,19.286808 472.828491,19.161188 484.671753,25.301523 
	C488.949677,27.519484 492.872620,30.413651 497.099640,32.741146 
	C500.139008,34.414696 500.713745,36.736786 500.060913,39.850075 
	C499.310516,43.428562 499.142670,47.178040 498.003296,50.615078 
	C496.125702,56.278961 498.073883,60.103565 502.483215,63.542625 
	C508.181091,67.986732 512.189087,74.034088 516.820435,79.488815 
	C518.770508,81.785583 518.409241,83.435143 516.265076,85.385414 
	C501.478851,98.834160 486.735474,112.330482 472.055634,125.895142 
	C469.396576,128.352203 468.166321,126.760307 466.548492,124.726280 
	C460.484497,117.102119 453.513000,110.395210 445.007568,105.572906 
	C417.375824,89.906601 384.394409,98.828644 368.712982,126.818993 
	C355.475006,150.447998 352.396698,175.518143 363.668091,200.708542 
	C374.763611,225.505814 394.860138,237.909927 422.023987,237.505386 
	C436.011749,237.297073 448.733337,232.373917 459.429932,222.900589 
	C462.237549,220.414062 463.834045,217.657669 463.648071,213.793976 
	C463.456055,209.803909 463.402130,205.781357 463.683380,201.800964 
	C464.025360,196.961212 461.899048,195.272339 457.249878,195.312286 
	C444.085266,195.425430 430.914948,195.112579 417.754761,195.370758 
	C412.844788,195.467056 411.434875,193.712631 411.562714,189.007736 
	C411.843231,178.682526 411.915710,168.334991 411.543884,158.015640 
	C411.354706,152.765701 413.360199,151.565506 418.215698,151.613663 
	C439.212616,151.821976 460.213196,151.625488 481.211884,151.712860 
	C496.199005,151.775223 506.978638,144.974670 513.984802,131.975952 
	C518.882996,122.888046 522.391357,113.124931 527.574463,104.152382 
	C548.130005,68.568779 578.375610,47.108097 619.492432,43.121155 
	C651.392212,40.027954 679.528259,50.395329 703.911011,71.139328 
	C713.284973,79.114357 720.832275,88.519157 727.193726,99.002457 
	C729.072449,102.098709 728.679260,103.887085 725.739502,105.962219 
	C712.945984,114.992943 700.229126,124.135498 687.619629,133.421066 
	C684.845337,135.464020 683.648743,134.311371 682.071899,132.136520 
	C675.275879,122.763451 667.699036,114.125771 657.384521,108.460945 
	C633.865479,95.544159 607.033386,100.741356 587.629150,117.362564 
	C574.587708,128.533569 567.825195,143.908142 560.433472,158.840759 
	C547.284119,185.404633 534.106140,211.954468 520.851135,238.465652 
	C519.553162,241.061752 519.185364,243.290527 520.548950,245.985291 
	C522.652161,250.141617 524.302979,254.525833 526.377075,258.698334 
	C527.757507,261.475281 527.404907,263.570404 525.339600,265.906097 
	C520.818665,271.018921 516.579834,276.368805 511.812500,281.282288 
	C509.460968,283.705902 507.435577,284.679077 504.646576,282.274353 
	C496.635742,275.367218 489.279968,274.675232 480.995911,282.721985 
	C477.384705,286.229797 474.510834,288.742035 475.170288,294.080841 
	C475.574738,297.354797 475.129578,300.733704 475.032959,304.532715 
	C463.979095,305.000000 452.958221,305.000000 441.282776,304.720001 
	C439.530914,302.871307 438.888153,300.540466 436.490326,300.715820 
	C431.102051,301.109772 425.733673,301.774475 420.356262,302.319580 
	C418.726898,302.484802 418.195526,303.588196 418.000000,305.000000 
	C406.312439,305.000000 394.624878,305.000000 382.468658,305.000000 
M363.782471,226.754456 
	C354.583221,219.148254 346.501801,210.517853 340.867798,199.937027 
	C323.294708,166.934235 324.515900,133.671371 340.649750,100.685204 
	C353.065857,75.300049 373.062317,58.850544 400.886932,52.447533 
	C402.410675,52.096886 403.971771,51.080303 406.320404,53.196987 
	C387.297974,58.273827 372.796173,69.290855 361.226929,84.162880 
	C349.594818,99.115707 340.333954,122.648483 340.752228,135.186798 
	C343.445251,124.390221 346.466278,114.139153 353.112488,105.293892 
	C346.034882,125.276062 341.833160,145.523529 345.526947,166.726105 
	C345.734253,159.738358 346.739716,152.827133 347.680115,145.911011 
	C350.823486,122.794464 358.707947,101.601364 374.359283,83.991585 
	C391.574768,64.621857 413.350891,56.564457 439.033295,60.644993 
	C458.694427,63.768845 474.750885,73.958557 488.265808,88.249199 
	C491.122681,91.270012 492.869171,90.028038 495.292633,87.971336 
	C497.970337,85.698952 497.244049,83.984009 495.239471,81.793396 
	C489.017365,74.993782 482.195251,68.875031 474.458679,63.894295 
	C443.647339,44.058243 411.334900,40.259193 377.554382,55.597355 
	C366.514740,60.609951 357.133362,68.098572 349.026550,77.144661 
	C341.079590,86.012390 333.973907,95.572975 329.491882,106.584564 
	C325.178162,117.182678 318.199646,127.221283 321.439575,139.935959 
	C322.462341,143.949524 321.039551,148.536606 321.080444,152.857956 
	C321.381561,184.687561 333.832886,210.617050 359.038544,230.220764 
	C363.522125,233.707870 368.293915,236.824417 372.932617,240.112061 
	C360.072601,236.554276 349.967712,228.687088 339.425446,219.421066 
	C361.707611,249.722931 404.070587,258.863861 425.478851,248.635025 
	C402.109558,249.837845 382.147522,241.526642 363.782471,226.754456 
M490.464294,216.337631 
	C490.059387,217.042770 489.774933,217.901474 488.610626,217.734909 
	C488.610626,213.517654 488.802002,209.288605 488.566284,205.083496 
	C488.201813,198.581726 486.920471,195.811951 483.686005,193.556427 
	C488.418396,219.015656 478.815308,239.724976 462.505005,258.332397 
	C464.704254,257.455505 466.626343,256.472748 468.380737,255.249451 
	C483.470184,244.728134 493.901886,230.834946 497.584229,212.648148 
	C501.550629,193.058273 509.182159,176.013535 526.220642,164.101898 
	C534.627197,158.224899 538.816162,149.161911 541.320740,139.450089 
	C544.980957,125.257233 549.197876,111.426743 561.522766,101.832138 
	C550.805298,106.608894 544.225586,114.726830 541.448669,125.900703 
	C540.001343,131.724686 538.443237,137.509995 536.212036,143.082657 
	C535.476562,144.919479 534.908447,147.095505 531.603333,148.039673 
	C534.433350,139.071030 535.343323,130.522964 536.586243,122.029640 
	C537.781555,113.861183 541.945190,107.458229 548.303223,102.352821 
	C552.085388,99.315857 556.099182,96.660797 560.507874,94.610992 
	C563.213684,93.352936 565.517761,91.640472 567.526611,88.082504 
	C563.231262,88.768394 561.070923,91.115097 558.847473,93.179054 
	C556.817078,95.063751 554.368103,96.227158 552.054199,94.932838 
	C548.169800,92.759972 546.231018,94.699799 544.367188,97.551811 
	C542.001282,101.172180 539.359985,104.654350 537.380432,108.477264 
	C532.482910,117.935593 527.976868,127.595726 523.159485,137.096664 
	C518.098450,147.078110 510.541931,154.402161 500.279358,159.215683 
	C491.064117,163.537964 481.477753,162.758759 471.850647,162.683929 
	C456.863159,162.567444 441.874756,162.437378 426.887543,162.502350 
	C422.574097,162.521042 422.104279,163.790649 424.314270,168.410645 
	C432.950684,163.849487 441.537537,164.134918 448.810242,170.824112 
	C456.678070,178.060715 464.937103,180.198853 475.379486,177.179749 
	C484.994965,174.399750 491.507599,179.376251 493.403900,189.170700 
	C495.169647,198.290894 493.654510,207.050507 490.464294,216.337631 
M450.493683,249.060608 
	C419.934937,270.260010 388.856781,267.688385 357.328094,251.328812 
	C359.270477,252.961487 361.323669,254.523438 363.438141,255.997421 
	C389.491302,274.158783 422.519592,276.846436 449.459198,258.142334 
	C463.235199,248.577713 472.668518,236.075928 474.189148,218.662521 
	C468.977631,230.605774 461.708832,240.924438 450.493683,249.060608 
M464.376312,89.049896 
	C468.897766,91.906746 473.017761,95.279175 476.953186,98.883553 
	C479.150726,100.896210 481.218353,101.167740 483.412018,98.799950 
	C485.751953,96.274239 483.605560,94.777718 482.116699,93.431480 
	C464.625488,77.616066 444.581299,68.798470 420.586975,72.534691 
	C411.020630,74.024292 401.667603,76.914757 394.334015,84.259018 
	C418.420685,72.287521 441.456207,74.942406 464.376312,89.049896 
M623.891602,69.359703 
	C617.904785,68.514145 615.990051,72.001938 617.066101,76.903473 
	C617.973877,81.038399 615.243286,85.969276 619.006104,88.864922 
	C624.260742,88.864922 628.900940,88.864922 633.945374,88.864922 
	C636.201233,82.798393 635.535950,76.312790 634.421997,69.965378 
	C630.756897,69.715591 627.598022,69.500298 623.891602,69.359703 
M520.487793,178.994553 
	C512.998230,186.574158 509.048828,195.813660 507.322784,206.419250 
	C507.848572,206.212479 508.077972,206.195969 508.136719,206.087234 
	C508.529968,205.359558 508.957275,204.638519 509.244843,203.867340 
	C513.363586,192.823090 519.813049,183.593613 529.522888,176.642273 
	C535.059265,172.678802 540.325134,168.371002 544.535095,162.824387 
	C550.137329,155.443604 553.683228,146.977432 558.007629,138.916809 
	C560.743774,133.816650 563.557983,128.758392 566.337158,123.681328 
	C561.411377,128.663864 558.333862,134.752106 554.904541,140.624191 
	C548.179016,152.140518 541.669922,163.849823 529.787170,171.132645 
	C526.496643,173.149368 523.710815,175.786987 520.487793,178.994553 
M627.497437,58.644920 
	C633.846008,59.243294 640.733765,56.571754 646.188477,62.533188 
	C647.921936,64.427704 650.668457,63.164192 652.216431,61.044735 
	C653.945618,58.677086 653.456299,56.216080 651.624878,54.197495 
	C649.832886,52.222321 647.286560,51.770184 645.418579,53.709942 
	C642.725830,56.506317 639.562317,56.396374 636.217224,56.315712 
	C632.892578,56.235542 629.502197,56.678761 626.250244,56.179161 
	C615.030884,54.455505 606.563599,58.233631 599.451599,67.147484 
	C594.756348,73.032288 589.762268,79.702705 580.538025,78.873528 
	C580.383972,78.859673 580.183472,79.361809 579.724792,80.032112 
	C583.911926,82.450233 587.888062,82.537865 591.499146,79.360474 
	C594.988159,76.290527 598.697754,73.243797 601.362854,69.510452 
	C607.669861,60.675472 615.744202,56.769180 627.497437,58.644920 
M660.502319,74.646172 
	C663.995056,74.640289 667.542603,75.028542 670.969910,74.551941 
	C679.954651,73.302490 687.303101,76.465569 693.593445,82.465424 
	C697.546631,86.236069 702.793762,89.151604 702.452698,96.016388 
	C702.323853,98.609947 704.732971,99.935020 707.407410,99.825340 
	C710.351501,99.704590 712.115173,97.915527 712.379028,95.162445 
	C712.678284,92.040321 710.576355,89.613564 707.815735,89.637428 
	C703.849609,89.671722 701.845215,87.310944 699.489075,85.018707 
	C695.428284,81.068031 691.110596,77.432060 686.317017,74.379250 
	C684.314941,73.104240 682.262695,72.202972 679.807617,72.216789 
	C668.831116,72.278549 657.854004,72.241882 646.877686,72.322754 
	C645.613342,72.332069 643.848511,71.696846 642.957520,74.644653 
	C648.731995,74.644653 654.117981,74.644653 660.502319,74.646172 
M576.267761,68.793785 
	C568.187561,74.205559 559.854919,79.339981 554.047180,87.837914 
	C556.280884,89.056702 557.457642,88.533630 558.546387,87.695305 
	C562.913391,84.332924 567.456055,81.360199 573.016724,80.290352 
	C574.348755,80.034073 575.654175,79.065521 575.554321,77.586464 
	C575.370667,74.867172 577.162476,74.338234 579.110962,73.653603 
	C585.474365,71.417664 590.048279,67.192375 592.424072,60.199783 
	C587.245605,62.936577 582.067078,65.673370 576.267761,68.793785 
M565.109375,111.481758 
	C573.858215,103.210709 583.044128,95.559959 594.544373,89.984543 
	C594.937317,96.846771 587.702637,97.188919 585.952209,102.550529 
	C594.119385,97.243370 602.483093,94.065735 610.486450,90.091095 
	C605.872864,88.296204 602.481934,92.563904 598.059204,91.881310 
	C599.585815,84.325623 606.522522,80.475746 610.218567,73.854362 
	C607.059692,73.935097 605.660706,75.228027 604.630859,76.672592 
	C599.303589,84.145103 592.340698,89.511566 584.076843,93.374763 
	C581.992249,94.349266 580.074890,95.768394 578.252808,97.201996 
	C571.791992,102.285484 565.319885,107.381920 561.905640,115.413246 
	C562.811340,114.258232 563.717102,113.103226 565.109375,111.481758 
M648.849487,80.388519 
	C647.192322,80.707924 645.177856,79.582649 643.503601,82.108879 
	C648.296753,83.477898 652.951538,83.063164 657.396301,82.699982 
	C665.933289,82.002449 673.015686,84.837547 679.607056,89.896332 
	C681.952942,91.696739 683.734985,93.158379 683.567566,96.641167 
	C683.415771,99.800133 685.756287,101.760094 689.132324,101.749077 
	C692.243530,101.738922 694.369507,100.093750 694.494202,97.010452 
	C694.626709,93.734550 692.535461,91.824722 689.310852,91.366562 
	C687.525391,91.112869 685.528015,91.646690 684.058289,90.253326 
	C674.323120,81.024025 662.485596,79.184532 648.849487,80.388519 
M686.498413,119.755180 
	C689.637390,119.534561 691.456421,117.856400 691.555176,114.718834 
	C691.639771,112.028885 689.938232,109.841911 687.536499,109.760643 
	C683.494568,109.623871 681.311462,107.018837 678.753845,104.724152 
	C672.892944,99.465691 666.292542,95.311508 659.227417,91.911606 
	C657.480164,91.070778 655.641052,89.646698 653.393250,90.533852 
	C653.516357,92.956032 655.360291,92.985931 656.624512,93.462738 
	C665.002686,96.622536 672.039001,101.854706 678.799255,107.546440 
	C680.678406,109.128586 681.855957,110.773750 681.377136,113.530609 
	C680.812378,116.781609 682.480103,118.931053 686.498413,119.755180 
M514.940247,213.621872 
	C517.183899,206.212112 518.712341,198.574951 522.042297,191.494141 
	C511.228241,209.020508 510.248810,230.666290 498.048889,247.591797 
	C508.624359,238.993607 511.965454,226.847153 514.940247,213.621872 
M455.362885,95.197479 
	C450.319183,92.999809 445.332825,90.631279 439.757843,89.913521 
	C450.549042,93.237602 458.999298,100.136513 467.131378,107.521286 
	C469.086426,109.296722 470.967499,111.032928 473.143402,107.286331 
	C468.013306,102.460670 462.345306,98.528732 455.362885,95.197479 
M443.203979,273.117462 
	C442.827057,273.417664 442.893433,273.620331 443.406921,273.701050 
	C443.569092,273.726501 443.746307,273.737091 443.903748,273.699829 
	C452.360443,271.699738 460.533936,268.966431 467.944916,264.299072 
	C476.836792,258.699036 483.132477,252.717880 486.346130,246.392166 
	C473.889465,259.278992 459.797485,267.785370 443.203979,273.117462 
M439.097321,174.268509 
	C434.580688,172.288345 430.891968,174.012360 427.376221,176.938644 
	C434.122345,174.401352 439.859894,177.264175 446.553223,180.881912 
	C444.329651,177.503891 442.381348,175.684494 439.097321,174.268509 
M669.100830,64.833672 
	C671.308655,65.956444 673.475708,67.171944 675.739746,68.166801 
	C677.070435,68.751526 678.437439,67.998421 678.018921,66.633003 
	C677.245972,64.111565 674.435486,63.981697 672.430969,62.981297 
	C670.978027,62.256107 669.123657,61.431847 669.100830,64.833672 
M570.406860,93.479286 
	C574.251221,93.577209 575.706116,90.896179 577.626465,87.530029 
	C573.361572,88.002663 570.913147,89.545403 570.406860,93.479286 
z"/>
<path fill="#000000" opacity="1.000000" stroke="none" 
	d="
M681.995117,205.091309 
	C695.183899,214.135529 708.049500,223.038330 720.992432,231.827118 
	C723.564819,233.573807 724.808960,235.090576 722.802307,238.230423 
	C699.402649,274.844452 666.352478,295.947723 622.641174,295.539398 
	C584.128845,295.179596 553.684204,276.680023 530.619568,245.996399 
	C529.159119,244.053528 528.816467,242.301376 529.927185,240.044022 
	C540.508728,218.538269 551.023926,196.999847 561.556458,175.469971 
	C561.850525,174.868896 562.151245,174.291412 563.362549,174.384277 
	C565.142700,177.895981 564.270813,182.007095 564.987549,185.825043 
	C570.232178,213.763809 589.313965,233.659332 616.968262,238.056290 
	C636.735229,241.199203 653.666016,234.308167 667.653442,220.187424 
	C671.521912,216.282089 674.983643,211.992905 677.493958,207.036011 
	C678.384338,205.277832 679.358521,203.763672 681.995117,205.091309 
M631.238708,260.025238 
	C632.112427,256.645752 632.672241,253.325989 629.495544,250.708572 
	C626.222351,252.377792 619.857422,252.559494 616.462524,251.159317 
	C612.373535,254.697250 615.608459,259.117584 614.902588,263.052643 
	C614.014465,268.004181 616.577698,269.136658 620.622192,269.077881 
	C622.582336,269.049377 624.540955,268.901031 626.499817,268.798187 
	C631.496582,268.535858 633.273499,265.376495 631.238708,260.025238 
M654.439636,266.908020 
	C659.807129,266.694977 665.091064,266.467499 668.854370,271.561768 
	C670.348450,273.584167 672.113281,272.241119 673.556458,270.980682 
	C681.059509,264.427582 689.207153,258.614624 696.071777,251.326630 
	C697.644470,249.656937 699.071106,248.059952 701.898315,248.149948 
	C705.417603,248.261978 707.554749,245.856445 707.394165,242.431427 
	C707.269409,239.771851 705.258545,237.610626 702.484009,237.666748 
	C699.214111,237.732864 697.532288,240.110962 697.304993,243.308411 
	C697.172913,245.166336 697.063660,246.930786 695.616028,248.346466 
	C688.517151,255.288605 681.360168,262.160278 673.603760,268.385712 
	C671.687500,269.923737 670.036011,270.158752 668.492554,268.166840 
	C666.069275,265.039215 662.953186,264.568390 659.197266,264.855896 
	C653.903870,265.261017 648.564209,265.033478 643.247375,265.183319 
	C642.319397,265.209534 640.863464,264.587097 640.446533,266.908356 
	C644.891663,266.908356 649.176819,266.908356 654.439636,266.908020 
M570.700928,222.137878 
	C570.302490,220.593506 569.439270,219.111588 567.936768,218.847702 
	C561.796021,217.769119 560.115784,212.746124 558.007568,208.065292 
	C557.450684,206.828903 557.198792,205.398407 555.459595,204.594772 
	C556.061157,208.889389 558.877686,212.025681 559.577576,215.596725 
	C560.960266,222.650940 563.892029,227.253540 570.512390,231.165787 
	C577.667053,235.393768 583.630371,241.775116 591.382080,245.401443 
	C593.691162,246.481644 595.625793,247.592316 596.582397,250.320877 
	C597.657043,253.385956 600.274902,254.654572 603.433594,253.380386 
	C605.576904,252.515793 607.012573,250.818726 606.142212,248.225830 
	C605.064148,245.014069 602.684204,243.651291 599.519897,244.659500 
	C597.048218,245.447067 594.954590,245.110001 592.836487,243.944412 
	C586.262024,240.326523 579.989807,236.282410 574.418274,231.198212 
	C571.937744,228.934662 570.337585,226.409897 570.700928,222.137878 
M564.574036,256.946442 
	C569.187805,259.429565 573.201355,262.398163 575.184692,267.618927 
	C576.611023,271.373505 579.804138,273.405396 583.391907,275.166168 
	C593.845520,280.296387 605.260132,281.338562 616.460571,283.518982 
	C616.867249,282.034454 617.064636,280.718079 614.942383,280.762756 
	C604.365601,280.985321 594.784363,277.135162 585.123657,273.558441 
	C581.349426,272.161072 578.622375,269.841980 576.804993,266.160675 
	C575.287659,263.087067 573.895813,259.867767 570.517395,258.032806 
	C561.797241,253.296463 554.545593,246.679688 547.654358,239.635071 
	C546.989746,238.955643 546.123169,238.473770 545.350403,237.900192 
	C550.172546,245.691132 556.782349,251.418793 564.574036,256.946442 
M670.463501,256.121643 
	C675.380005,252.680771 678.812683,247.114456 685.768494,246.563614 
	C688.644409,246.335876 689.187683,243.220261 688.670471,240.536957 
	C688.173828,237.960983 686.263367,237.097015 683.848450,237.184433 
	C681.105469,237.283752 679.207214,238.837387 679.249146,241.466858 
	C679.310059,245.286987 677.083069,247.347519 674.734497,249.836380 
	C669.000916,255.912460 662.168579,258.055603 654.025879,257.236816 
	C650.396912,256.871887 646.703979,257.065582 643.042969,257.141724 
	C641.892029,257.165649 640.257080,256.645416 639.730774,259.672363 
	C649.129150,258.200104 658.314209,259.946716 667.439575,258.274719 
	C668.329102,258.111755 669.078186,257.182343 670.463501,256.121643 
M687.317078,224.337082 
	C687.142517,220.890106 685.256714,219.184357 681.878296,219.207062 
	C679.134521,219.225525 676.961792,220.840546 677.373718,223.429749 
	C678.222351,228.763596 674.756409,231.248322 671.498901,234.023804 
	C663.991943,240.419998 655.850647,245.756836 646.328674,248.773773 
	C657.535339,248.265244 665.824036,241.929306 673.747375,235.032669 
	C676.841980,232.339081 679.143433,228.750168 683.905457,228.521210 
	C685.599304,228.439789 686.555115,226.667679 687.317078,224.337082 
M575.385925,241.936768 
	C573.110168,240.900665 570.773193,240.555435 568.979553,242.621750 
	C567.552246,244.266159 567.749084,246.402634 568.595520,248.295761 
	C569.769958,250.922272 572.124878,250.965729 574.552429,250.660965 
	C575.898438,250.491974 577.176147,250.611694 578.382019,251.364655 
	C583.442261,254.524216 589.112732,256.547180 593.966309,260.167511 
	C597.282837,262.641266 601.344421,263.200775 605.437866,262.396790 
	C594.348022,257.376068 581.706238,255.101059 575.385925,241.936768 
M555.252502,232.177063 
	C553.281433,229.462112 551.807922,226.332047 548.800354,224.480743 
	C552.053467,230.905289 555.609619,237.077789 562.581238,240.422363 
	C560.290344,237.856964 557.999390,235.291550 555.252502,232.177063 
M653.006653,278.389252 
	C652.708862,281.079071 649.923401,280.787720 647.966248,281.978546 
	C650.926147,283.479248 652.563171,282.170441 653.920166,280.403931 
	C655.032654,278.955841 655.015442,277.286163 653.988892,275.778534 
	C652.890625,274.165558 651.524902,273.003815 649.294739,274.097687 
	C651.199707,274.693542 652.638855,275.630219 653.006653,278.389252 
z"/>
<path fill="#000000" opacity="1.000000" stroke="none" 
	d="
M514.073242,165.196320 
	C507.792175,169.670593 501.428955,171.206619 494.141937,167.890259 
	C507.108490,165.757721 516.368103,158.381348 523.896179,148.110809 
	C522.759827,154.926941 519.760986,160.609467 514.073242,165.196320 
z"/>
<path fill="#000000" opacity="1.000000" stroke="none" 
	d="
M474.699524,166.976440 
	C475.126740,171.034332 471.462799,170.450760 469.373474,171.302002 
	C464.014435,173.485382 459.868530,172.011047 455.823090,166.384338 
	C462.542603,168.294739 468.474731,168.030396 474.699524,166.976440 
z"/>
<path fill="#000000" opacity="1.000000" stroke="none" 
	d="
M646.383545,58.154755 
	C647.338562,56.519569 648.113831,54.594803 650.107727,56.239590 
	C651.333557,57.250778 650.951050,58.727276 649.808960,59.627365 
	C648.236694,60.866417 646.792480,60.930206 646.383545,58.154755 
z"/>
<path fill="#000000" opacity="1.000000" stroke="none" 
	d="
M566.871094,220.261780 
	C569.517456,221.955124 569.855042,223.803406 567.573181,225.539078 
	C566.051331,226.696671 564.195801,226.514267 563.453369,224.594727 
	C562.426208,221.938843 564.027100,220.635162 566.871094,220.261780 
z"/>
<path fill="#000000" opacity="1.000000" stroke="none" 
	d="
M599.423950,247.406998 
	C601.886902,245.940338 603.572388,246.478439 603.983887,249.002426 
	C604.294189,250.905396 602.988953,252.277542 601.086182,252.011368 
	C598.492004,251.648514 598.143921,249.848358 599.423950,247.406998 
z"/>
<path fill="#000000" opacity="1.000000" stroke="none" 
	d="
M683.315247,244.806641 
	C680.673401,242.955292 680.823975,241.158112 683.120911,239.662109 
	C684.336853,238.870148 685.787170,239.140320 686.450684,240.576050 
	C687.726868,243.337601 686.148682,244.451797 683.315247,244.806641 
z"/>
<path fill="#000000" opacity="1.000000" stroke="none" 
	d="
M680.715576,226.391083 
	C679.039429,224.817062 678.658813,223.347488 680.134155,221.838760 
	C681.042908,220.909470 682.216736,220.741669 683.341187,221.362671 
	C684.617249,222.067505 685.313538,223.263107 684.908325,224.702972 
	C684.358215,226.657333 682.960754,227.257538 680.715576,226.391083 
z"/>
<path fill="#000000" opacity="1.000000" stroke="none" 
	d="
M574.268555,248.413757 
	C572.013489,249.497040 570.763733,248.692093 570.200012,246.836746 
	C569.751404,245.360107 570.698608,244.365204 571.844299,243.604416 
	C572.940735,242.876343 574.027771,242.951767 574.946533,243.910004 
	C576.426636,245.453735 575.840332,246.861389 574.268555,248.413757 
z"/>
</svg>