<svg version="1.1" id="Layer_1" xmlns="http://www.w3.org/2000/svg" xmlns:xlink="http://www.w3.org/1999/xlink" x="0px" y="0px"
	 width="100%" viewBox="0 0 1024 1024" enable-background="new 0 0 1024 1024" xml:space="preserve">
<path fill="#000000" opacity="1.000000" stroke="none" 
	d="
M841.978943,112.999985 
	C841.949890,179.826904 841.891724,246.153809 841.899536,312.480713 
	C841.923706,519.117004 841.952332,725.753357 842.047913,932.389648 
	C842.056335,950.567444 835.826050,965.677795 821.009949,976.529480 
	C812.400635,982.834961 802.583618,986.192932 791.693542,986.190308 
	C608.377380,986.145386 425.061218,986.095886 241.745193,986.255310 
	C230.873825,986.264771 220.531540,985.261536 210.881958,980.074036 
	C193.433487,970.694153 184.179245,955.517944 184.121750,936.258118 
	C183.757553,814.270996 183.962204,692.282227 183.966537,570.294006 
	C183.972198,410.809448 183.982925,251.324890 183.950058,91.840340 
	C183.943970,62.290905 205.673599,40.101288 235.188538,40.067497 
	C274.516052,40.022472 313.843719,40.236332 353.171387,40.255310 
	C389.992004,40.273079 426.815063,39.905415 463.632507,40.228420 
	C491.604919,40.473831 519.569092,40.317375 547.539246,40.229477 
	C628.501038,39.975056 709.463989,40.076134 790.426453,40.013344 
	C819.854065,39.990524 841.931213,61.983414 842.009216,91.497017 
	C842.027710,98.497925 841.991211,105.498985 841.978943,112.999985 
M201.425018,307.499939 
	C201.424362,390.630280 201.418747,473.760651 201.424240,556.890991 
	C201.432129,676.389160 201.402206,795.887390 201.544785,915.385376 
	C201.556625,925.301331 200.157135,935.328308 203.377365,945.148621 
	C207.151245,956.657349 214.244904,964.160889 226.307236,967.067505 
	C238.044113,969.895691 249.901886,968.324280 261.637604,968.380920 
	C339.281769,968.756104 416.928741,968.633911 494.574646,968.544006 
	C521.568604,968.512695 548.567017,968.361084 575.557495,968.334717 
	C602.040039,968.308777 628.523621,967.868896 655.007812,968.101624 
	C677.000305,968.294922 699.002808,968.732849 720.985168,968.286865 
	C740.980225,967.881104 760.952454,968.778809 780.937622,968.456299 
	C788.936890,968.327271 797.151550,968.770081 804.541260,965.581055 
	C817.640076,959.928040 823.946899,949.307312 823.948364,935.103699 
	C823.976929,653.608093 823.977051,372.112518 823.982056,90.616943 
	C823.982178,86.079765 823.239075,81.640022 821.446045,77.493774 
	C815.431274,63.584969 804.418945,57.863396 789.633972,57.901623 
	C743.302917,58.021404 696.971313,57.989273 650.639954,57.984844 
	C511.978455,57.971596 373.316986,57.928120 234.655487,57.938828 
	C215.141129,57.940334 202.035889,71.058975 201.938766,90.581520 
	C201.723267,133.898712 202.060150,177.216263 201.489670,220.534683 
	C201.112381,249.185074 201.424438,277.844543 201.425018,307.499939 
z"/>
<path fill="#000000" opacity="1.000000" stroke="none" 
	d="
M358.000000,490.002258 
	C338.510864,489.989288 319.521698,489.977814 300.532562,489.966461 
	C285.571625,489.957489 269.931976,477.917084 265.750244,463.641846 
	C264.366516,458.918213 263.891388,454.253662 263.895477,449.406311 
	C263.936493,400.767212 263.896881,352.128021 263.938141,303.488922 
	C263.957184,281.039703 279.885834,264.356171 302.339813,264.174194 
	C340.981842,263.860992 379.628448,264.127563 418.273071,264.100586 
	C439.264313,264.085938 452.930023,277.385345 456.488617,292.428009 
	C457.073029,294.898346 457.372284,297.326355 457.374237,299.825073 
	C457.400146,333.139374 457.374115,366.453796 457.462402,399.767914 
	C457.507385,416.741913 457.679840,433.716461 457.930695,450.688751 
	C458.255371,472.651825 441.363434,489.953918 419.464905,489.958191 
	C399.143280,489.962128 378.821625,489.987732 358.000000,490.002258 
M282.828125,458.312836 
	C285.118103,464.301697 288.853943,468.802429 295.144958,470.944427 
	C296.292908,468.772491 295.921021,466.906677 295.931671,465.118713 
	C296.002838,453.121277 295.980072,441.123352 296.040009,429.125793 
	C296.133209,410.473999 303.902588,395.763306 318.886108,384.761292 
	C321.254089,383.022522 324.311096,382.220154 326.308289,379.326477 
	C316.951477,369.252380 312.047913,357.257690 312.305115,343.553284 
	C312.569000,329.491028 318.695099,317.966797 328.934448,308.445648 
	C345.914124,292.656952 375.166565,292.102692 393.312439,308.681610 
	C401.926361,316.551666 407.130768,326.207245 409.022644,337.518951 
	C411.732086,353.719269 406.398132,367.642578 395.681427,379.516632 
	C396.504761,381.361969 397.958435,381.919708 399.228241,382.639587 
	C415.626434,391.935364 424.086060,406.177155 425.468536,424.795135 
	C426.333374,436.441956 425.827057,448.108856 425.826111,459.767914 
	C425.825806,463.376770 425.558502,467.010040 426.465118,470.596527 
	C435.133301,468.087402 439.967590,461.403809 439.978516,451.830261 
	C440.035156,402.173126 440.067902,352.515869 440.052979,302.858673 
	C440.049072,289.745117 432.009491,281.890289 418.693390,281.889191 
	C379.867340,281.885986 341.041321,281.918243 302.215271,281.962311 
	C290.075958,281.976074 281.732635,289.994415 281.618896,302.171448 
	C281.443085,320.989105 281.515045,339.809662 281.565125,358.628754 
	C281.644928,388.619080 281.777771,418.609253 281.936554,448.599243 
	C281.952332,451.583496 282.302643,454.565979 282.828125,458.312836 
z"/>
<path fill="#000000" opacity="1.000000" stroke="none" 
	d="
M635.000000,905.991333 
	C511.201172,905.994263 387.902344,905.999390 264.603516,905.984863 
	C261.944733,905.984558 259.253113,905.980408 256.633972,905.592407 
	C251.225693,904.791199 248.242462,900.997437 248.722458,895.922180 
	C249.144760,891.456909 252.575348,888.576782 257.788605,888.566895 
	C274.950348,888.534363 292.112244,888.584351 309.274078,888.583252 
	C451.567535,888.574097 593.860962,888.560730 736.154419,888.548096 
	C741.115295,888.547607 745.509155,892.253967 745.806213,896.696167 
	C746.102539,901.127014 742.721130,904.814636 737.448120,905.583862 
	C735.317200,905.894653 733.133728,905.941528 730.973938,905.943726 
	C699.149292,905.975891 667.324646,905.980286 635.000000,905.991333 
z"/>
<path fill="#000000" opacity="1.000000" stroke="none" 
	d="
M298.000000,616.067993 
	C394.767426,616.075745 491.034882,616.082703 587.302307,616.101013 
	C589.464661,616.101440 591.650879,616.051392 593.784302,616.336487 
	C598.192017,616.925476 601.781433,620.645264 601.936401,624.519226 
	C602.106384,628.770264 598.800354,632.678894 594.105835,633.462585 
	C591.822144,633.843872 589.467041,633.925476 587.144226,633.925964 
	C479.051514,633.948669 370.958801,633.950195 262.866089,633.930786 
	C260.543457,633.930359 258.189453,633.849243 255.904938,633.472717 
	C251.424347,632.734314 248.213928,628.979065 248.322571,624.924194 
	C248.440094,620.536316 251.323349,617.097473 256.056885,616.534180 
	C260.171356,616.044617 264.361969,616.110840 268.519836,616.086792 
	C278.179626,616.030945 287.839905,616.068787 298.000000,616.067993 
z"/>
<path fill="#000000" opacity="1.000000" stroke="none" 
	d="
M300.266815,712.513977 
	C338.186005,712.547424 375.667755,712.622925 413.149261,712.555664 
	C457.110107,712.476807 501.071808,712.047485 545.030762,712.260132 
	C558.520142,712.325378 572.001526,712.046814 585.486206,712.136047 
	C588.312317,712.154724 591.156433,712.288391 593.957092,712.645386 
	C598.316223,713.201050 601.970764,717.029175 601.794983,721.000549 
	C601.593384,725.553894 598.950439,728.390381 594.577515,729.377258 
	C592.490784,729.848083 590.278381,729.906677 588.122864,729.907654 
	C479.658966,729.956909 371.195038,729.983521 262.731140,729.980957 
	C260.245331,729.980896 257.698761,729.895935 255.286728,729.366638 
	C250.745209,728.370117 248.085800,724.620544 248.554855,720.212646 
	C249.052078,715.540222 251.879410,712.983521 256.425629,712.657654 
	C270.884796,711.621094 285.360046,712.366821 300.266815,712.513977 
z"/>
<path fill="#000000" opacity="1.000000" stroke="none" 
	d="
M415.000061,664.636353 
	C473.136993,664.636169 530.773926,664.636230 588.410828,664.639343 
	C590.076477,664.639404 591.746582,664.600281 593.406921,664.703674 
	C597.745544,664.973816 601.481079,668.447876 601.827332,672.454102 
	C602.171997,676.442078 599.047974,680.546509 594.676636,681.397217 
	C592.247070,681.869995 589.712585,681.956665 587.225281,681.957214 
	C480.280548,681.980591 373.335785,681.979919 266.391052,681.950073 
	C262.736603,681.949097 259.036652,681.918274 255.439362,681.368408 
	C250.943192,680.681213 248.009415,676.686096 248.355148,672.499023 
	C248.719177,668.090332 251.945328,664.930359 256.583435,664.668091 
	C259.406738,664.508484 262.245361,664.610901 265.077118,664.611328 
	C314.884766,664.618408 364.692413,664.627930 415.000061,664.636353 
z"/>
<path fill="#000000" opacity="1.000000" stroke="none" 
	d="
M468.000000,857.976074 
	C399.671265,857.980774 331.842499,857.988220 264.013763,857.973083 
	C261.520691,857.972534 258.997040,857.957703 256.540985,857.591492 
	C251.256683,856.803589 248.336395,853.278870 248.656403,848.427917 
	C248.972824,843.631409 252.430710,840.612183 257.810394,840.590149 
	C266.142883,840.555969 274.475708,840.614014 282.808411,840.614807 
	C374.135620,840.623352 465.462830,840.628174 556.790039,840.636597 
	C558.456360,840.636719 560.134949,840.545105 561.786621,840.709351 
	C565.942566,841.122742 569.301880,844.579041 569.544739,848.540527 
	C569.798096,852.673096 567.135925,856.464539 562.944580,857.323792 
	C560.359619,857.853760 557.649231,857.933716 554.994690,857.937744 
	C526.163147,857.981873 497.331573,857.970947 468.000000,857.976074 
z"/>
<path fill="#000000" opacity="1.000000" stroke="none" 
	d="
M305.001587,104.043396 
	C312.825104,104.040138 320.150726,103.935425 327.472595,104.056183 
	C338.498474,104.238037 345.334595,110.573242 345.789734,121.651253 
	C346.192535,131.454865 346.175354,141.298386 345.815186,151.104889 
	C345.373962,163.118851 340.100983,168.187881 326.716248,170.055420 
	C330.605957,173.977097 334.325165,177.702789 338.014618,181.457672 
	C339.646088,183.118057 341.328827,184.746902 342.794312,186.547913 
	C346.632141,191.264420 346.778046,195.563644 343.365875,198.972656 
	C339.795502,202.539688 334.384613,202.453491 330.035736,198.244659 
	C320.829102,189.334488 311.832092,180.207855 302.736389,171.182785 
	C301.474396,169.930573 300.140411,168.750900 298.011169,166.764755 
	C298.011169,175.658646 298.116882,183.569382 297.974060,191.475632 
	C297.878601,196.762009 294.701538,200.739822 290.542542,201.324081 
	C285.652924,202.010971 281.378357,199.035690 280.306641,193.994919 
	C279.930603,192.226410 279.922089,190.358063 279.919830,188.535095 
	C279.892029,166.063965 279.871796,143.592712 279.923737,121.121681 
	C279.930267,118.307388 280.216797,115.472687 280.627808,112.684914 
	C281.397644,107.462608 284.694672,104.378242 290.023499,104.127510 
	C294.840302,103.900871 299.675140,104.056061 305.001587,104.043396 
M298.050964,143.461166 
	C298.050964,147.061676 298.050964,150.662201 298.050964,155.321960 
	C301.983032,151.684845 306.017029,151.986374 309.985321,151.977646 
	C314.303650,151.968170 318.627686,151.842026 322.938599,152.021973 
	C326.541656,152.172348 328.043182,150.823715 327.941772,147.111862 
	C327.755829,140.307297 327.775208,133.491379 327.935059,126.685501 
	C328.016113,123.234306 326.631012,121.918716 323.243286,121.973373 
	C316.436096,122.083183 309.623077,122.086411 302.817322,121.926399 
	C299.096405,121.838905 297.832489,123.453178 297.969391,127.029869 
	C298.166199,132.171555 298.039459,137.325592 298.050964,143.461166 
z"/>
<path fill="#000000" opacity="1.000000" stroke="none" 
	d="
M630.376343,131.510315 
	C631.169250,132.776794 631.640686,133.888336 633.671875,134.542374 
	C636.906067,129.472244 640.291992,124.253662 643.580750,118.974556 
	C645.515869,115.868248 647.170898,112.583054 649.180725,109.528870 
	C651.373047,106.197472 654.291809,103.304008 658.606934,104.369057 
	C663.064941,105.469398 665.588440,108.958473 665.716919,113.549934 
	C665.954102,122.028343 665.869263,130.516220 665.887573,139.000214 
	C665.923523,155.652939 665.940186,172.305725 665.957947,188.958481 
	C665.959167,190.123337 665.977173,191.295547 665.862061,192.451874 
	C665.312866,197.968933 661.943237,201.343735 657.017273,201.368683 
	C652.157166,201.393295 648.590576,197.921616 648.065186,192.543762 
	C647.903748,190.891861 647.949524,189.216980 647.948608,187.552597 
	C647.940735,173.902023 647.944153,160.251465 647.944153,145.327347 
	C645.574524,149.153580 643.739014,152.083405 641.936951,155.033646 
	C636.291626,164.275787 629.788208,164.323868 624.325623,155.179779 
	C622.474182,152.080750 620.535828,149.033691 617.979919,144.899841 
	C617.979919,158.256042 617.982422,170.336685 617.978210,182.417328 
	C617.977112,185.581253 618.077576,188.751434 617.916199,191.907730 
	C617.621826,197.667770 614.094177,201.358765 609.079773,201.370895 
	C604.121094,201.382889 600.496094,197.713623 600.053467,192.015747 
	C599.847534,189.365372 599.933105,186.690308 599.932251,184.026398 
	C599.925659,164.043121 599.893372,144.059692 599.964050,124.076668 
	C599.977600,120.257423 600.437805,116.441124 600.642639,112.620819 
	C600.870117,108.379143 603.484009,105.963516 607.096008,104.582153 
	C611.085938,103.056274 614.112427,105.307030 616.065796,108.275925 
	C620.999390,115.774651 625.525085,123.541771 630.376343,131.510315 
z"/>
<path fill="#000000" opacity="1.000000" stroke="none" 
	d="
M458.056915,134.972229 
	C458.058960,136.451218 458.158356,137.462265 458.044037,138.448532 
	C457.572357,142.517929 459.223267,144.149414 463.411346,144.026077 
	C471.068573,143.800552 478.737640,143.928619 486.401306,143.978836 
	C498.179626,144.056030 504.909943,149.978699 505.683777,161.673584 
	C506.188599,169.302765 506.187836,177.010956 505.751984,184.645981 
	C505.128601,195.565765 498.487762,201.762268 487.619598,201.904785 
	C475.626495,202.062073 463.627136,202.032730 451.634705,201.832764 
	C445.314728,201.727386 441.633362,199.126129 440.806458,194.954742 
	C439.644440,189.092697 443.942902,184.168442 450.736725,184.060226 
	C461.063507,183.895752 471.400360,183.822418 481.721924,184.108246 
	C486.495575,184.240463 488.491699,182.672958 487.992126,177.838501 
	C487.719513,175.200195 487.909576,172.511963 487.924988,169.846420 
	C487.971741,161.753983 489.867157,161.968399 479.925476,162.000671 
	C472.928131,162.023376 465.928589,162.113449 458.933716,161.980667 
	C448.023682,161.773575 441.330994,155.986755 440.396606,145.077164 
	C439.716644,137.138428 439.657715,129.074570 440.179718,121.122803 
	C440.852173,110.879089 448.034821,104.351410 458.365936,104.152084 
	C470.690308,103.914284 483.023346,104.010193 495.351227,104.118797 
	C501.419006,104.172256 505.404572,107.767258 505.508240,112.834961 
	C505.619415,118.271561 502.443359,121.566940 495.775513,121.768600 
	C485.122742,122.090767 474.454559,121.904182 463.792908,121.931007 
	C461.987396,121.935555 460.181885,121.931648 458.055969,121.931648 
	C458.055969,126.311005 458.055969,130.401947 458.056915,134.972229 
z"/>
<path fill="#000000" opacity="1.000000" stroke="none" 
	d="
M380.134338,121.928497 
	C378.011688,122.390747 378.014008,123.758987 378.022369,125.122414 
	C378.051880,129.951935 378.202484,134.784378 378.078857,139.609863 
	C377.994232,142.913284 379.509247,144.013519 382.605347,143.963837 
	C388.266022,143.872940 393.930634,143.900696 399.591705,143.994431 
	C405.260559,144.088303 409.553680,147.651718 409.713409,152.230270 
	C409.906342,157.760910 406.199829,161.594681 399.912292,161.874725 
	C394.427582,162.119003 388.916656,162.129944 383.431763,161.899933 
	C379.266266,161.725266 377.742126,163.357773 377.998535,167.462311 
	C378.257568,171.609634 378.249908,175.797333 377.998138,179.945450 
	C377.792023,183.341660 379.128235,184.177567 382.339203,184.121979 
	C392.495087,183.946213 402.656219,184.044998 412.815094,184.088364 
	C414.805908,184.096863 416.873047,184.033798 418.770355,184.524445 
	C423.041748,185.629044 425.864014,188.421616 425.912964,192.979614 
	C425.962402,197.580444 423.129456,200.316895 418.844971,201.465729 
	C417.262909,201.889938 415.546265,201.935486 413.890259,201.941010 
	C400.567047,201.985489 387.243195,202.048798 373.920410,201.966537 
	C363.060394,201.899475 360.000854,198.814941 359.963806,187.844391 
	C359.886230,164.862000 359.866608,141.879105 359.930542,118.896721 
	C359.964386,106.729752 362.853790,104.025879 375.155029,104.044106 
	C387.807678,104.062843 400.460358,104.054367 413.113037,104.065392 
	C414.611206,104.066696 416.123138,103.995285 417.604797,104.165634 
	C421.799652,104.647942 425.604523,108.442253 425.869110,112.278610 
	C426.187897,116.900955 423.390228,120.466393 418.457245,121.409019 
	C416.347748,121.812111 414.158142,121.937614 412.004303,121.943253 
	C401.512878,121.970726 391.021210,121.914986 380.134338,121.928497 
z"/>
<path fill="#000000" opacity="1.000000" stroke="none" 
	d="
M680.003662,189.654358 
	C679.976074,166.380875 679.936340,143.567123 679.968384,120.753456 
	C679.972351,117.935516 680.164917,115.086975 680.611023,112.307343 
	C681.398315,107.402687 684.735962,104.222878 689.847961,104.165695 
	C705.498901,103.990646 721.153748,104.021545 736.805542,104.154213 
	C741.366699,104.192863 745.674194,108.541855 745.815125,112.610603 
	C745.980713,117.391106 743.028381,120.858665 737.552979,121.445938 
	C726.271057,122.655983 714.930359,122.070778 703.622925,121.837257 
	C699.375366,121.749535 697.484619,122.580002 697.998291,127.261627 
	C698.449768,131.376602 698.208374,135.580246 698.097168,139.740021 
	C698.017456,142.718414 699.274536,143.974640 702.234436,143.939957 
	C707.895203,143.873627 713.558350,143.901169 719.219238,143.979279 
	C725.435181,144.065002 729.578186,147.394913 729.705688,152.281998 
	C729.853638,157.950104 725.985535,161.668198 719.338562,161.899673 
	C714.016357,162.085022 708.678894,162.089325 703.356384,161.917740 
	C699.616821,161.797165 697.818604,162.980515 698.004578,167.043442 
	C698.253784,172.487762 698.066223,177.952072 698.066223,184.048019 
	C703.076660,184.048019 707.516174,184.045868 711.955627,184.048492 
	C720.115234,184.053314 728.276855,183.953568 736.433716,184.106766 
	C741.514160,184.202164 745.714539,188.129272 745.950867,192.567413 
	C746.198914,197.226166 742.688171,201.324936 737.200623,201.587357 
	C721.400574,202.342880 705.573120,202.291519 689.773804,201.628021 
	C683.231506,201.353271 680.844360,197.992233 680.003662,189.654358 
z"/>
<path fill="#000000" opacity="1.000000" stroke="none" 
	d="
M520.017212,143.000000 
	C520.002136,134.005127 519.822144,125.506264 520.024475,117.016510 
	C520.218872,108.857613 524.008118,103.996773 529.531982,104.157227 
	C534.608826,104.304695 537.881470,109.406555 537.901306,117.403580 
	C537.951355,137.558273 538.082825,157.714294 537.887939,177.866943 
	C537.840820,182.740646 539.556091,184.318817 544.267517,184.086914 
	C550.415466,183.784271 556.594666,183.876770 562.751404,184.076477 
	C566.637878,184.202545 568.000732,182.723969 567.977173,178.821106 
	C567.856506,158.833481 567.917236,138.844482 567.996948,118.856293 
	C568.007446,116.212090 568.164001,113.485252 568.824585,110.945343 
	C569.963806,106.564491 573.245422,104.142235 577.644409,104.261673 
	C581.752319,104.373192 584.168030,107.385712 585.275879,111.108063 
	C585.879883,113.137604 585.895996,115.390251 585.899963,117.542801 
	C585.938293,138.197235 585.942200,158.851868 585.884399,179.506226 
	C585.876526,182.327774 585.690918,185.184906 585.216797,187.962265 
	C583.837830,196.041168 578.191589,201.426208 569.799438,201.741928 
	C558.159546,202.179825 546.482361,202.510727 534.850159,201.437363 
	C526.501404,200.666977 520.201416,193.102524 520.073425,183.476196 
	C519.896179,170.152908 520.022888,156.825607 520.017212,143.000000 
z"/>
<path fill="#000000" opacity="1.000000" stroke="none" 
	d="
M747.754456,297.900055 
	C681.985413,297.902527 616.686218,297.906738 551.386963,297.883881 
	C549.062927,297.883057 546.714600,297.778229 544.420105,297.436279 
	C539.567383,296.713104 536.534302,293.084839 536.776733,288.562134 
	C537.023193,283.964722 540.319458,280.739990 545.378052,280.691681 
	C558.536621,280.566040 571.697510,280.686249 584.856689,280.599884 
	C619.998718,280.369263 655.140625,280.860748 690.285217,280.254517 
	C710.739746,279.901611 731.210144,280.386200 751.672180,280.608459 
	C757.576050,280.672577 761.691040,284.213776 761.723083,288.775818 
	C761.757141,293.611816 758.137024,297.009613 752.211792,297.655365 
	C750.889526,297.799469 749.553772,297.819946 747.754456,297.900055 
z"/>
<path fill="#000000" opacity="1.000000" stroke="none" 
	d="
M394.000000,552.090210 
	C416.146973,552.082520 437.793915,552.062927 459.440887,552.081848 
	C461.764587,552.083862 464.132111,552.069214 466.402344,552.483765 
	C470.777252,553.282593 474.084442,557.245728 473.992676,561.170166 
	C473.895813,565.311951 470.705414,568.723572 466.072205,569.402771 
	C463.775269,569.739563 461.432220,569.902405 459.109894,569.903992 
	C415.149933,569.933838 371.190002,569.936096 327.230042,569.907715 
	C324.741211,569.906067 322.235535,569.720947 319.767487,569.395203 
	C315.110657,568.780701 312.557129,565.739014 312.367065,561.325500 
	C312.174988,556.865967 314.711182,553.699402 319.118286,552.617126 
	C321.341492,552.071106 323.741058,552.115051 326.061188,552.111572 
	C348.540741,552.077576 371.020386,552.090088 394.000000,552.090210 
z"/>
<path fill="#000000" opacity="1.000000" stroke="none" 
	d="
M391.000000,793.988831 
	C369.679688,793.984192 348.859344,793.991150 328.039093,793.957886 
	C325.546478,793.953918 323.027924,793.917664 320.567169,793.571167 
	C315.332458,792.834167 312.405304,789.327454 312.665985,784.425964 
	C312.932068,779.422791 316.064819,776.600403 321.685150,776.586731 
	C338.671387,776.545410 355.658325,776.673218 372.643982,776.570068 
	C401.453979,776.395081 430.267914,777.092834 459.075073,776.170532 
	C461.562897,776.090820 464.112671,776.113953 466.546051,776.563660 
	C471.039581,777.394104 473.567566,780.479614 473.836731,784.891663 
	C474.104279,789.277466 471.509216,792.173279 467.385681,793.238464 
	C464.847473,793.894104 462.107605,793.956238 459.457550,793.962158 
	C436.805145,794.012756 414.152527,793.989441 391.000000,793.988831 
z"/>
<path fill="#000000" opacity="1.000000" stroke="none" 
	d="
M590.000000,457.941162 
	C576.502441,457.939423 563.504822,457.951111 550.507263,457.923187 
	C548.511963,457.918884 546.499695,457.863770 544.525452,457.603210 
	C539.733826,456.970978 536.542786,453.702515 536.498901,449.566528 
	C536.447998,444.765991 539.723328,441.213654 544.734863,440.598541 
	C550.721008,439.863861 556.706665,440.494507 562.693542,440.490784 
	C593.016357,440.471863 623.342346,441.051147 653.662354,440.193481 
	C657.242676,440.092224 660.660156,440.450104 663.282166,443.351166 
	C665.458801,445.759430 666.460876,448.436829 665.316223,451.607941 
	C664.228088,454.622803 662.230408,456.824127 658.951294,457.293091 
	C656.157959,457.692627 653.312317,457.883636 650.489075,457.891602 
	C630.492798,457.948059 610.496399,457.933533 590.000000,457.941162 
z"/>
<path fill="#000000" opacity="1.000000" stroke="none" 
	d="
M566.000122,392.617676 
	C596.315063,392.613007 626.130127,392.580597 655.944946,392.624634 
	C662.678711,392.634583 666.729492,397.232330 665.352844,403.026001 
	C664.544556,406.427368 662.435059,408.685699 658.989929,409.256592 
	C656.212158,409.716980 653.357849,409.887756 650.537170,409.890717 
	C617.557495,409.925323 584.577759,409.915649 551.598083,409.874969 
	C548.941711,409.871704 546.253296,409.755463 543.636780,409.336121 
	C539.254578,408.633789 536.421753,404.773438 536.755371,400.368317 
	C537.075195,396.144684 540.146667,392.837677 544.515381,392.702148 
	C551.504456,392.485321 558.504578,392.627289 566.000122,392.617676 
z"/>
<path fill="#000000" opacity="1.000000" stroke="none" 
	d="
M595.000122,344.612091 
	C615.466248,344.518494 635.432373,344.366089 655.398499,344.367645 
	C661.502380,344.368134 665.546204,348.000488 665.540405,352.956451 
	C665.534485,358.029144 661.610779,361.239258 655.388550,361.410889 
	C629.784119,362.117188 604.180420,361.438904 578.576416,361.438293 
	C567.934631,361.438019 557.302307,362.185516 546.647461,361.456299 
	C540.293091,361.021393 536.644531,358.111176 536.749146,352.812531 
	C536.850342,347.686890 540.406738,344.647156 546.563354,344.630920 
	C562.542175,344.588806 578.521118,344.614105 595.000122,344.612091 
z"/>
<path fill="#000000" opacity="1.000000" stroke="none" 
	d="
M279.333008,545.307983 
	C293.163757,553.596436 293.362183,568.626587 280.156219,576.050598 
	C273.891907,579.572205 268.162720,578.015808 262.915680,574.221802 
	C258.060669,570.711182 255.479248,565.714294 256.233398,559.542175 
	C257.575928,548.554443 267.937927,542.053589 279.333008,545.307983 
z"/>
<path fill="#000000" opacity="1.000000" stroke="none" 
	d="
M290.010590,784.993835 
	C288.845093,793.605591 284.623749,799.357117 276.379608,801.337402 
	C269.753174,802.929199 264.104553,800.547363 259.981262,795.334656 
	C255.699051,789.921143 254.997772,783.744385 258.254303,777.538757 
	C261.651886,771.064331 267.197784,767.520569 274.541656,768.164429 
	C281.896576,768.809326 286.514435,773.483154 289.088135,780.209290 
	C289.614349,781.584351 289.714386,783.122559 290.010590,784.993835 
z"/>
</svg>